# xmcd
# 
# Track frame offsets:
#     183
#     14360
#     28245
#     42158
#     55198
#     68430
#     81850
#     96175
#     109265
#     123115
#     137370
#     151248
#     166205
#     180628
#     194258
#     207223
#     220585
#     234543
# 
# Disc length: 3305
# 
# Revision: 4
# Processed by: cddbd v1.5.2PL0 Copyright (c) Steve Scherf et al.
# Submitted via: fre:ac v1.0.27
# 
DISCID=e60ce712
DTITLE=Bix Beiderbecke - Bix Beiderbecke
DYEAR=0
DGENRE=Jazz
TTITLE0=Ol' Man River
TTITLE1=Wa-Da-Da
TTITLE2=Jazz me Blues
TTITLE3=At the Jazz Band Ball
TTITLE4=Sorry
TTITLE5=Singin' the Blues
TTITLE6=I'm comin' Virginia
TTITLE7=Way down yonder in New Orleans
TTITLE8=Trumbology
TTITLE9=Ostric Walk
TTITLE10=For no reason at all in 'C'
TTITLE11=Goose Pimples
TTITLE12=Riverboat Shuffle
TTITLE13=Thou Swell
TTITLE14=Louisiana
TTITLE15=Margie
TTITLE16=I'll be a friend with pleasure
TTITLE17=Bessie couldn't help it
EXTD=
EXTT0=
EXTT1=
EXTT2=
EXTT3=
EXTT4=
EXTT5=
EXTT6=
EXTT7=
EXTT8=
EXTT9=
EXTT10=
EXTT11=
EXTT12=
EXTT13=
EXTT14=
EXTT15=
EXTT16=
EXTT17=
PLAYORDER=
